PathFileType	4	(X/Y/Z)	TVC_58_BWA_03_walk_RCNL2025.trc
DataRate	CameraRate	NumFrames	NumMarkers	Units	OrigDataRate	OrigDataStartFrame	OrigNumFrames
100	100	6	27	mm	100	84	335
Frame#	Time	R_Shoulder			L_Shoulder			C7			J_Notch			R_Elbow			L_Elbow			R_Wrist			L_Wrist			R_Asis			L_Asis			R_Psis			L_Psis			Sacral			Thoracic			Sternum			R_Thigh_Lateral			R_Knee_Lateral			R_Shank_Lateral			R_Ankle_Lateral			R_Heel			R_Toe			L_Thigh_Lateral			L_Knee_Lateral			L_Shank_Lateral			L_Ankle_Lateral			L_Heel			L_Toe		
		X1	Y1	Z1	X2	Y2	Z2	X3	Y3	Z3	X4	Y4	Z4	X5	Y5	Z5	X6	Y6	Z6	X7	Y7	Z7	X8	Y8	Z8	X9	Y9	Z9	X10	Y10	Z10	X11	Y11	Z11	X12	Y12	Z12	X13	Y13	Z13	X14	Y14	Z14	X15	Y15	Z15	X16	Y16	Z16	X17	Y17	Z17	X18	Y18	Z18	X19	Y19	Z19	X20	Y20	Z20	X21	Y21	Z21	X22	Y22	Z22	X23	Y23	Z23	X24	Y24	Z24	X25	Y25	Z25	X26	Y26	Z26	X27	Y27	Z27
84	0.83000000	-1229.333374	1313.234375	240.173386	-1232.580078	1328.635010	-116.118752	-1290.575928	1395.060425	56.469227	-1147.815796	1292.684937	61.745220	-1203.203369	993.705139	304.209900	-1310.618530	1013.573792	-180.762833	-1043.246216	797.207092	310.669861	-1255.974060	775.353241	-240.309898	-1126.252319	882.287659	197.949692	-1128.520996	890.534729	-116.308067	-1357.112427	928.253174	104.490952	-1361.232544	914.393311	-4.128646	-1359.172485	921.323242	50.181153	-1348.301025	1090.495117	53.824608	-1051.032104	1060.203003	46.843929	-1190.864014	664.860352	273.578491	-1291.621216	448.770020	189.483292	-1399.816650	269.894379	233.034561	-1514.073364	97.070152	139.198120	-1568.512817	109.989128	88.214760	-1401.861328	44.887066	98.307228	-1161.358276	645.981323	-184.054672	-1034.016357	474.711151	-81.177620	-1019.237610	291.332703	-131.441513	-1031.930420	61.919254	-47.970966	-1079.128540	51.867054	1.005493	-895.333862	50.370594	-15.750252
85	0.84000000	-1220.984497	1313.888794	239.274231	-1224.629028	1328.805298	-117.047752	-1282.509521	1395.164185	55.475704	-1139.406128	1293.478027	60.743477	-1196.707642	993.977600	303.143677	-1300.354980	1013.498047	-182.221573	-1036.912720	797.133118	309.186630	-1245.954529	775.516602	-242.022758	-1115.137451	882.540161	195.897110	-1118.888794	892.336975	-118.006989	-1346.194824	927.976440	105.103416	-1351.194702	914.668091	-3.973942	-1348.694763	921.322266	50.564737	-1338.917114	1090.306396	53.360691	-1041.573364	1061.737183	45.606838	-1179.073486	664.447876	271.756531	-1279.851074	448.343353	188.378601	-1392.078369	271.988739	232.268250	-1510.853638	101.141403	139.463577	-1564.400391	115.761818	88.120872	-1400.814819	44.610870	98.336723	-1150.111816	647.633911	-185.184097	-1025.548706	474.734222	-81.789726	-1011.169434	291.567200	-131.303925	-1031.546387	61.733788	-47.980656	-1078.985352	52.501633	0.896809	-894.867004	48.114586	-15.558148
86	0.85000000	-1212.595093	1314.723511	238.370300	-1216.725952	1329.181030	-117.971085	-1274.443359	1395.404541	54.498558	-1130.991577	1294.442261	59.729305	-1190.333618	994.439514	302.075500	-1290.286987	1013.643066	-183.600494	-1030.940643	797.068542	307.811768	-1235.779114	775.953369	-243.723564	-1104.086182	882.967651	193.802048	-1109.259155	894.343567	-119.688087	-1335.246948	927.857544	105.701324	-1341.133667	915.188599	-3.886123	-1338.190308	921.523071	50.907601	-1329.524170	1090.265137	52.893970	-1032.116943	1063.450073	44.343281	-1167.218628	664.254456	269.982513	-1267.333740	447.883759	187.406525	-1383.942505	274.455658	231.589920	-1507.028198	105.621628	139.682907	-1559.418091	122.084579	87.868179	-1399.737305	44.234707	98.341606	-1139.460815	649.317810	-186.393188	-1017.602417	474.712738	-82.482803	-1004.181641	291.257904	-131.411072	-1031.202148	61.630737	-48.059765	-1078.841553	53.119911	0.719278	-894.457825	46.448853	-15.489429
87	0.86000000	-1204.174927	1315.719482	237.467117	-1208.855713	1329.749390	-118.884453	-1266.373169	1395.775635	53.540802	-1122.572021	1295.559692	58.712093	-1184.063599	995.077637	301.007629	-1280.426636	1013.994629	-184.891403	-1025.319916	797.004272	306.561020	-1225.451538	776.650543	-245.401932	-1093.145142	883.559082	191.702103	-1099.631714	896.503357	-121.313782	-1324.317139	927.875854	106.236877	-1331.062622	915.937195	-3.902086	-1327.689880	921.906525	51.167396	-1320.133423	1090.368164	52.417381	-1022.670654	1065.306396	43.076439	-1155.332397	664.278687	268.297821	-1254.079468	447.384155	186.593460	-1375.398682	277.290771	231.053207	-1502.516724	110.500465	139.868317	-1553.484375	128.936676	87.483337	-1398.624756	43.780224	98.325233	-1129.512085	650.974121	-187.656570	-1010.222290	474.630646	-83.246780	-998.713684	290.334961	-131.835098	-1030.854126	61.592850	-48.185253	-1078.653564	53.701214	0.495913	-894.080872	45.320953	-15.504041
88	0.87000000	-1195.734619	1316.853882	236.570480	-1201.002197	1330.493530	-119.783928	-1258.295044	1396.269531	52.604935	-1114.147949	1296.809814	57.701462	-1177.880371	995.874512	299.942749	-1270.779053	1014.533630	-186.089355	-1020.038025	796.930664	305.449005	-1214.977234	777.589355	-247.048752	-1082.358765	884.298340	189.635956	-1090.005249	898.760437	-122.845894	-1313.454834	928.007629	106.663940	-1320.996826	916.890625	-4.056094	-1317.225830	922.449127	51.303923	-1310.757080	1090.610107	51.923714	-1013.242065	1067.266479	41.829281	-1143.443115	664.510742	266.737762	-1240.106445	446.840576	185.957458	-1366.404175	280.456421	230.701691	-1497.240967	115.757118	140.036499	-1546.537476	136.278458	87.006943	-1397.445679	43.289967	98.295883	-1120.323364	652.556091	-188.947739	-1003.432190	474.477600	-84.067062	-994.952148	288.880493	-132.602158	-1030.482788	61.601334	-48.334408	-1078.405151	54.229790	0.249000	-893.729431	44.648834	-15.561840
89	0.88000000	-1187.285645	1318.100952	235.686264	-1193.147827	1331.393066	-120.665871	-1250.204834	1396.876709	51.693001	-1105.719604	1298.169800	56.707088	-1171.767700	996.809204	298.883789	-1261.341675	1015.236633	-187.192780	-1015.080322	796.837677	304.488907	-1204.362854	778.746094	-248.656158	-1071.767212	885.164673	187.642105	-1080.379028	901.056641	-124.247284	-1302.710205	928.226990	106.940323	-1310.952881	918.021057	-4.377499	-1306.831543	923.124023	51.281412	-1301.406738	1090.983887	51.405926	-1003.838196	1069.287476	40.623966	-1131.573730	664.933655	265.329620	-1225.439819	446.253235	185.506927	-1356.880737	283.879120	230.563065	-1491.128174	121.360832	140.205841	-1538.539307	144.050705	86.488312	-1396.132080	42.828358	98.268341	-1111.901245	654.031433	-190.240799	-997.234985	474.249084	-84.925468	-992.789001	287.091553	-133.674805	-1030.085327	61.638134	-48.486774	-1078.100342	54.695679	-0.001569	-893.407654	44.334072	-15.626647
